<svg width="22" height="22" viewBox="0 0 22 22" fill="none" xmlns="http://www.w3.org/2000/svg">
<path d="M12.5 17L11.7972 16.4378L12.5 17ZM9.5 17L10.2028 16.4378L9.5 17ZM15.1279 13L15.9249 13.4182L15.1279 13ZM4.85903 13.2684C5.00729 12.794 4.74288 12.2892 4.26845 12.141C3.79402 11.9927 3.28923 12.2571 3.14097 12.7316L4.85903 13.2684ZM6.87207 13L6.07513 13.4182L6.87207 13ZM18.859 12.7316C18.7108 12.2571 18.206 11.9927 17.7316 12.141C17.2571 12.2892 16.9927 12.794 17.141 13.2684L18.859 12.7316ZM1.70286 20.3509L2.56189 20.6193L1.70286 20.3509ZM20.2971 20.3509L21.1562 20.0824L20.2971 20.3509ZM5.9 7C5.9 4.18335 8.18335 1.9 11 1.9V0.1C7.18924 0.1 4.1 3.18924 4.1 7H5.9ZM11 1.9C13.8167 1.9 16.1 4.18335 16.1 7H17.9C17.9 3.18924 14.8108 0.1 11 0.1V1.9ZM8.79722 17.5622C9.15602 18.0107 9.75217 18.683 10.5979 18.8476C11.5738 19.0375 12.447 18.507 13.2028 17.5622L11.7972 16.4378C11.2177 17.1622 10.9517 17.0826 10.9417 17.0807C10.8017 17.0535 10.5655 16.8912 10.2028 16.4378L8.79722 17.5622ZM12.1 7C12.1 7.60751 11.6075 8.1 11 8.1V9.9C12.6016 9.9 13.9 8.60163 13.9 7H12.1ZM11 8.1C10.3925 8.1 9.9 7.60751 9.9 7H8.1C8.1 8.60163 9.39837 9.9 11 9.9V8.1ZM9.9 7C9.9 6.39249 10.3925 5.9 11 5.9V4.1C9.39837 4.1 8.1 5.39837 8.1 7H9.9ZM11 5.9C11.6075 5.9 12.1 6.39249 12.1 7H13.9C13.9 5.39837 12.6016 4.1 11 4.1V5.9ZM16.1 7C16.1 8.12133 15.5989 10.1656 14.331 12.5818L15.9249 13.4182C17.2681 10.8584 17.9 8.51916 17.9 7H16.1ZM14.331 12.5818C13.6849 13.813 12.8482 15.1241 11.7972 16.4378L13.2028 17.5622C14.3271 16.1569 15.2265 14.749 15.9249 13.4182L14.331 12.5818ZM19.8199 20.1H2.1801V21.9H19.8199V20.1ZM2.56189 20.6193L4.85903 13.2684L3.14097 12.7316L0.843823 20.0824L2.56189 20.6193ZM4.1 7C4.1 8.51916 4.73189 10.8584 6.07513 13.4182L7.66901 12.5818C6.40109 10.1656 5.9 8.12133 5.9 7H4.1ZM6.07513 13.4182C6.77348 14.749 7.67295 16.1569 8.79722 17.5622L10.2028 16.4378C9.15184 15.1241 8.31506 13.813 7.66901 12.5818L6.07513 13.4182ZM21.1562 20.0824L18.859 12.7316L17.141 13.2684L19.4381 20.6193L21.1562 20.0824ZM2.1801 20.1C2.44995 20.1 2.64238 20.3617 2.56189 20.6193L0.843823 20.0824C0.562104 20.9839 1.2356 21.9 2.1801 21.9V20.1ZM19.8199 21.9C20.7644 21.9 21.4379 20.9839 21.1562 20.0824L19.4381 20.6193C19.3576 20.3617 19.55 20.1 19.8199 20.1V21.9Z" fill="#303030"/>
</svg>
