<svg width="28" height="28" viewBox="0 0 28 28" fill="none" xmlns="http://www.w3.org/2000/svg">
<path d="M25.9423 12.6244C25.3814 12.643 24.9415 13.1128 24.96 13.6737C25.0586 16.6584 23.9891 19.5026 21.9482 21.6829C19.9075 23.8629 17.1399 25.118 14.1554 25.2165C14.0309 25.2206 13.9072 25.2226 13.7833 25.2226C9.88898 25.2224 6.30148 23.1999 4.27544 19.923L7.80803 20.8702C8.35019 21.0155 8.90756 20.6939 9.05298 20.1517C9.19828 19.6095 8.87666 19.0522 8.3345 18.9067L2.58896 17.3662C2.32861 17.2965 2.05111 17.333 1.81775 17.4676C1.58424 17.6023 1.4139 17.8243 1.34405 18.0847L-0.19633 23.8304C-0.341709 24.3725 -0.0200548 24.9298 0.522105 25.0753C0.610325 25.0989 0.698785 25.1103 0.785955 25.1103C1.23461 25.1103 1.6453 24.8108 1.76702 24.3568L2.63286 21.1275C5.04153 24.9203 9.23417 27.2555 13.7828 27.2553C13.9289 27.2553 14.0758 27.2529 14.2225 27.2481C17.7497 27.1315 21.0205 25.6484 23.4323 23.0719C25.8442 20.4954 27.1082 17.1339 26.9917 13.6066C26.9732 13.0458 26.5032 12.6045 25.9423 12.6244Z" fill="white"/>
<path d="M26.5565 2.30166C26.0075 2.18385 25.4673 2.53364 25.3498 3.08246L24.6112 6.52919C22.2596 2.51746 17.9433 0 13.2125 0C5.9271 0 0 5.92702 0 13.2125C0 13.7738 0.454999 14.2289 1.01635 14.2289C1.57762 14.2289 2.0327 13.7738 2.0327 13.2125C2.0327 7.04793 7.04793 2.0327 13.2125 2.0327C17.2315 2.0327 20.8973 4.17947 22.8821 7.59766L19.4937 6.87149C18.9447 6.75384 18.4044 7.10355 18.287 7.65238C18.1694 8.2012 18.519 8.74158 19.0678 8.85915L24.8843 10.1056C24.9831 10.1268 25.0834 10.1329 25.1824 10.1246C25.3472 10.1107 25.5078 10.0567 25.6493 9.9651C25.8757 9.81866 26.0345 9.58832 26.0911 9.3248L27.3376 3.50836C27.455 2.95961 27.1054 2.4194 26.5565 2.30166Z" fill="white"/>
</svg>
