<svg width="18" height="21" viewBox="0 0 18 21" fill="none" xmlns="http://www.w3.org/2000/svg">
<path d="M16.0001 19.9997V19.0997H16.0001L16.0001 19.9997ZM2.00006 19.9998V20.8998H2.00007L2.00006 19.9998ZM2.00006 17.9998V18.8998C2.23876 18.8998 2.46767 18.805 2.63646 18.6362C2.80524 18.4674 2.90006 18.2385 2.90006 17.9998H2.00006ZM16.0001 17.9997H15.1001C15.1001 18.2384 15.1949 18.4673 15.3637 18.6361C15.5324 18.8049 15.7614 18.8997 16.0001 18.8997V17.9997ZM15.0001 2.99981L15.72 3.53982C15.8705 3.33927 15.9304 3.08507 15.8855 2.83844C15.8405 2.59181 15.6948 2.37511 15.4833 2.24052L15.0001 2.99981ZM3.00006 2.99993L2.53697 2.22821C2.31849 2.35932 2.16581 2.5769 2.11684 2.82696C2.06787 3.07701 2.12718 3.33611 2.28007 3.53995L3.00006 2.99993ZM7.85387 3.71514C7.69668 3.24359 7.18699 2.98876 6.71545 3.14594C6.2439 3.30313 5.98906 3.81282 6.14625 4.28437L7.85387 3.71514ZM11.3732 5.21805C11.4937 4.73584 11.2006 4.24719 10.7184 4.12663C10.2361 4.00607 9.7475 4.29925 9.62694 4.78146L11.3732 5.21805ZM7.00006 10.0998C6.503 10.0998 6.10006 10.5027 6.10006 10.9998C6.10006 11.4968 6.503 11.8998 7.00006 11.8998V10.0998ZM11.0001 11.8998C11.4971 11.8998 11.9001 11.4968 11.9001 10.9998C11.9001 10.5027 11.4971 10.0998 11.0001 10.0998V11.8998ZM7.00006 12.5998C6.503 12.5998 6.10006 13.0027 6.10006 13.4998C6.10006 13.9968 6.503 14.3998 7.00006 14.3998V12.5998ZM11.0001 14.3998C11.4971 14.3998 11.9001 13.9968 11.9001 13.4998C11.9001 13.0027 11.4971 12.5998 11.0001 12.5998V14.3998ZM8.10006 16.4998C8.10006 16.9968 8.503 17.3998 9.00006 17.3998C9.49712 17.3998 9.90006 16.9968 9.90006 16.4998H8.10006ZM16.0001 19.0997L2.00005 19.0998L2.00007 20.8998L16.0001 20.8997L16.0001 19.0997ZM2.00006 19.0998C2.00059 19.0998 1.97963 19.0991 1.95043 19.0907C1.92248 19.0827 1.90637 19.0734 1.90093 19.0695C1.89876 19.0679 1.90496 19.0726 1.90928 19.081C1.91396 19.0901 1.90006 19.0713 1.90006 18.9998H0.100061C0.100061 19.6932 0.409108 20.2134 0.849189 20.5302C1.24338 20.814 1.68938 20.8998 2.00006 20.8998V19.0998ZM1.90006 18.9998C1.90006 19.0004 1.90084 18.9794 1.90918 18.9502C1.91717 18.9223 1.92653 18.9061 1.93044 18.9007C1.93201 18.8985 1.92729 18.9047 1.91893 18.9091C1.90984 18.9137 1.92855 18.8998 2.00006 18.8998V17.0998C1.30673 17.0998 0.786538 17.4089 0.46968 17.849C0.185864 18.2431 0.100061 18.6891 0.100061 18.9998H1.90006ZM16.0001 18.8997C15.9995 18.8997 16.0205 18.9005 16.0497 18.9089C16.0776 18.9168 16.0938 18.9262 16.0992 18.9301C16.1014 18.9317 16.0952 18.927 16.0908 18.9186C16.0862 18.9095 16.1001 18.9282 16.1001 18.9997H17.9001C17.9001 18.3064 17.591 17.7862 17.1509 17.4693C16.7567 17.1855 16.3107 17.0997 16.0001 17.0997V18.8997ZM16.0001 20.8997C16.3107 20.8997 16.7567 20.8139 17.1509 20.5301C17.591 20.2133 17.9001 19.6931 17.9001 18.9997H16.1001C16.1001 19.0712 16.0862 19.0899 16.0908 19.0809C16.0952 19.0725 16.1014 19.0678 16.0992 19.0693C16.0938 19.0733 16.0776 19.0826 16.0497 19.0906C16.0205 19.0989 15.9995 19.0997 16.0001 19.0997V20.8997ZM16.9001 17.9997C16.9001 16.4205 16.6396 14.0844 15.9885 11.8707C15.3493 9.69738 14.2737 7.43369 12.4993 6.25079L11.5008 7.74848C12.7265 8.56557 13.6508 10.3019 14.2616 12.3786C14.8605 14.415 15.1001 16.579 15.1001 17.9997H16.9001ZM2.90006 17.9998C2.90006 16.5791 3.13957 14.4151 3.73849 12.3787C4.34928 10.3021 5.27365 8.56569 6.49929 7.7486L5.50083 6.25091C3.72647 7.43382 2.65085 9.6975 2.01163 11.8708C1.36055 14.0845 1.10006 16.4206 1.10006 17.9998H2.90006ZM12.72 7.53965L15.72 3.53982L14.2801 2.45979L11.2801 6.45962L12.72 7.53965ZM6.72005 6.45974L3.72005 2.45992L2.28007 3.53995L5.28007 7.53977L6.72005 6.45974ZM3.46315 3.77165C4.68848 3.03637 6.18026 2.24365 7.9867 2.01783C9.76473 1.79557 11.9311 2.1136 14.5169 3.7591L15.4833 2.24052C12.569 0.385968 9.98539 -0.0460281 7.76342 0.231735C5.56986 0.505947 3.81164 1.46332 2.53697 2.22821L3.46315 3.77165ZM6.00012 7.89976L8.00012 7.89963L8 6.09963L6 6.09976L6.00012 7.89976ZM8.85387 6.71501L7.85387 3.71514L6.14625 4.28437L7.14625 7.28425L8.85387 6.71501ZM8.00006 7.89963H10.0001V6.09963H8.00006V7.89963ZM10.0001 7.89963H12.0001V6.09963H10.0001V7.89963ZM10.8732 7.21793L11.3732 5.21805L9.62694 4.78146L9.12694 6.78134L10.8732 7.21793ZM7.00006 11.8998H11.0001V10.0998H7.00006V11.8998ZM7.00006 14.3998H9.00006V12.5998H7.00006V14.3998ZM9.00006 14.3998H11.0001V12.5998H9.00006V14.3998ZM8.10006 13.4998V16.4998H9.90006V13.4998H8.10006Z" fill="#303030"/>
</svg>
