<svg width="10" height="20" viewBox="0 0 10 20" fill="none" xmlns="http://www.w3.org/2000/svg">
<path d="M2.98651 10.874C1.94605 10.874 0.982659 10.874 0 10.874C0 9.668 0 8.54106 0 7.33503C0.963391 7.33503 1.90751 7.33503 2.90944 7.33503C2.92871 7.13732 2.94798 6.99892 2.94798 6.84075C2.94798 6.129 2.94798 5.41724 2.94798 4.70549C2.94798 4.01351 3.04432 3.32152 3.27553 2.64931C3.77649 1.24557 4.79769 0.41519 6.20424 0.118625C6.72447 0.0197707 7.28324 0 7.80347 0C8.51638 0 9.24856 0.0593129 10 0.0988548C10 1.18626 10 2.21435 10 3.32152C9.4605 3.32152 8.95954 3.32152 8.43931 3.32152C8.16956 3.32152 7.91908 3.32152 7.64933 3.36106C7.03276 3.45992 6.66667 3.83557 6.57033 4.46824C6.51252 4.82412 6.51252 5.19976 6.51252 5.55564C6.51252 6.10923 6.51252 6.66282 6.51252 7.27571C7.66859 7.33503 8.76686 7.27571 9.92293 7.31526C9.84586 8.50152 9.65318 9.64823 9.5183 10.8543C8.53565 10.8543 7.57225 10.8543 6.55106 10.8543C6.51252 11.5265 6.53179 12.1196 6.53179 12.7127C6.53179 13.3059 6.53179 13.9188 6.53179 14.5119C6.53179 15.105 6.53179 15.7179 6.53179 16.311C6.53179 16.9042 6.53179 17.5171 6.53179 18.1102C6.53179 18.7033 6.53179 19.3162 6.53179 19.9687C5.35645 20.028 4.20039 19.9884 2.96725 19.9687C2.98651 16.9437 2.98651 13.9583 2.98651 10.874Z" fill="#9D2550"/>
</svg>
