<svg width="22" height="18" viewBox="0 0 22 18" fill="none" xmlns="http://www.w3.org/2000/svg">
<path d="M3 17H2.1C2.1 17.4971 2.50294 17.9 3 17.9V17ZM19 17V17.9C19.4971 17.9 19.9 17.4971 19.9 17H19ZM19 7H19.9C19.9 6.71672 19.7666 6.44997 19.54 6.28L19 7ZM11 1L11.54 0.28C11.22 0.04 10.78 0.04 10.46 0.28L11 1ZM3 7L2.46 6.28C2.23337 6.44997 2.1 6.71672 2.1 7H3ZM16.3333 5L15.7933 5.72L16.3333 5ZM1 16.1C0.502944 16.1 0.1 16.5029 0.1 17C0.1 17.4971 0.502944 17.9 1 17.9V16.1ZM21 17.9C21.4971 17.9 21.9 17.4971 21.9 17C21.9 16.5029 21.4971 16.1 21 16.1V17.9ZM16 4.75L15.46 5.47L16 4.75ZM16.9 2C16.9 1.50294 16.4971 1.1 16 1.1C15.5029 1.1 15.1 1.50294 15.1 2H16.9ZM19.9 17V7H18.1V17H19.9ZM10.46 0.28L2.46 6.28L3.54 7.72L11.54 1.72L10.46 0.28ZM2.1 7V17H3.9V7H2.1ZM19.54 6.28L16.8733 4.28L15.7933 5.72L18.46 7.72L19.54 6.28ZM13.9 17V13H12.1V17H13.9ZM13.9 13C13.9 12.5226 13.7642 11.8266 13.3304 11.2241C12.8635 10.5757 12.0933 10.1 11 10.1V11.9C11.5067 11.9 11.7365 12.091 11.8696 12.2759C12.0358 12.5067 12.1 12.8107 12.1 13H13.9ZM11 10.1C9.90667 10.1 9.13648 10.5757 8.66962 11.2241C8.2358 11.8266 8.1 12.5226 8.1 13H9.9C9.9 12.8107 9.9642 12.5067 10.1304 12.2759C10.2635 12.091 10.4933 11.9 11 11.9V10.1ZM8.1 13V17H9.9V13H8.1ZM19 16.1H13V17.9H19V16.1ZM9 16.1H3V17.9H9V16.1ZM3 7.9H19V6.1H3V7.9ZM1 17.9H21V16.1H1V17.9ZM13 16.1H9V17.9H13V16.1ZM16.8733 4.28L16.54 4.03L15.46 5.47L15.7933 5.72L16.8733 4.28ZM16.54 4.03L11.54 0.28L10.46 1.72L15.46 5.47L16.54 4.03ZM16.9 4.75V2H15.1V4.75H16.9Z" fill="#303030"/>
</svg>
