<svg width="20" height="20" viewBox="0 0 20 20" fill="none" xmlns="http://www.w3.org/2000/svg">
<path d="M10 19L9.27999 19.54C9.44996 19.7667 9.71672 19.9 10 19.9C10.2833 19.9 10.5501 19.7667 10.72 19.54L10 19ZM19 4.99988H19.9C19.9 4.50282 19.497 4.09988 19 4.09988V4.99988ZM17 2.99988H17.9C17.9 2.69896 17.7496 2.41795 17.4992 2.25103L17 2.99988ZM0.999954 4.99988V4.09988C0.502898 4.09988 0.0999542 4.50282 0.0999542 4.99988H0.999954ZM2.99995 2.99988L2.50072 2.25103C2.25035 2.41795 2.09995 2.69896 2.09995 2.99988H2.99995ZM7.63635 9.36348C7.28487 9.01201 6.71502 9.01201 6.36355 9.36349C6.01208 9.71496 6.01209 10.2848 6.36356 10.6363L7.63635 9.36348ZM10 12.9999L9.36361 13.6363C9.56196 13.8346 9.84144 13.9291 10.1195 13.8919C10.3975 13.8547 10.6423 13.6899 10.7814 13.4464L10 12.9999ZM14.7814 6.4464C15.028 6.01483 14.878 5.46506 14.4465 5.21846C14.0149 4.97185 13.4651 5.12179 13.2185 5.55336L14.7814 6.4464ZM10.72 19.54C10.8194 19.4075 11.0049 19.2391 11.3281 19.0165C11.647 18.7966 12.0328 18.5681 12.5011 18.2879C13.4167 17.7401 14.564 17.0444 15.6679 16.0408C17.9243 13.9895 19.9 10.7448 19.9 4.99988H18.1C18.1 10.2549 16.3256 13.0102 14.4571 14.709C13.4985 15.5804 12.4895 16.1972 11.5769 16.7433C11.1312 17.01 10.685 17.2736 10.3067 17.5343C9.93254 17.7921 9.5556 18.0925 9.27997 18.4601L10.72 19.54ZM19 4.09988C18.8107 4.09988 18.5067 4.03568 18.2759 3.8695C18.0909 3.73635 17.9 3.50655 17.9 2.99988H16.1C16.1 4.09321 16.5757 4.8634 17.2241 5.33026C17.8266 5.76408 18.5226 5.89988 19 5.89988V4.09988ZM10.72 18.4601C10.4444 18.0925 10.0674 17.7921 9.69329 17.5343C9.31501 17.2736 8.86875 17.01 8.423 16.7433C7.5104 16.1972 6.50146 15.5804 5.54287 14.709C3.67428 13.0102 1.89995 10.2549 1.89995 4.99988H0.0999542C0.0999542 10.7448 2.07563 13.9895 4.33205 16.0408C5.43596 17.0444 6.58328 17.7401 7.49882 18.2879C7.96714 18.5681 8.35293 18.7966 8.67192 19.0165C8.99505 19.2391 9.18062 19.4075 9.27999 19.54L10.72 18.4601ZM0.999954 5.89988C1.47731 5.89988 2.17331 5.76408 2.77583 5.33026C3.42424 4.8634 3.89995 4.09321 3.89995 2.99988H2.09995C2.09995 3.50655 1.909 3.73635 1.72408 3.8695C1.49327 4.03568 1.18927 4.09988 0.999954 4.09988V5.89988ZM3.49918 3.74872C4.42098 3.13419 6.24607 1.89988 9.99998 1.89988V0.099878C5.75384 0.099878 3.57893 1.53223 2.50072 2.25103L3.49918 3.74872ZM17.4992 2.25103C16.421 1.53223 14.2461 0.099878 9.99998 0.099878V1.89988C13.7539 1.89988 15.579 3.13419 16.5007 3.74872L17.4992 2.25103ZM6.36356 10.6363L9.36361 13.6363L10.6364 12.3635L7.63635 9.36348L6.36356 10.6363ZM10.7814 13.4464L14.7814 6.4464L13.2185 5.55336L9.21858 12.5534L10.7814 13.4464Z" fill="#303030"/>
</svg>
