<svg width="18" height="20" viewBox="0 0 18 20" fill="none" xmlns="http://www.w3.org/2000/svg">
<path d="M17.9903 5.00773C16.8193 5.00773 15.7388 4.62902 14.8712 3.99014C13.8761 3.25776 13.1611 2.18345 12.9086 0.945208C12.8461 0.639268 12.8124 0.323546 12.8092 0H9.46401V8.92314L9.46 13.8108C9.46 15.1175 8.58833 16.2254 7.38002 16.6151C7.02935 16.7282 6.65062 16.7818 6.25627 16.7606C5.75291 16.7336 5.2812 16.5854 4.87122 16.3459C3.99875 15.8365 3.40721 14.9125 3.39118 13.8554C3.36594 12.2032 4.73416 10.8562 6.42539 10.8562C6.75923 10.8562 7.07985 10.9094 7.38002 11.006V8.56712V7.69038C7.06342 7.64461 6.7412 7.62074 6.41537 7.62074C4.56423 7.62074 2.83292 8.3719 1.59535 9.72516C0.659955 10.7478 0.0988811 12.0526 0.0123153 13.4207C-0.101102 15.218 0.572588 16.9265 1.87909 18.187C2.07106 18.3721 2.27264 18.5438 2.48345 18.7023C3.60359 19.5438 4.97301 20 6.41537 20C6.7412 20 7.06342 19.9765 7.38002 19.9308C8.7274 19.7359 9.97058 19.1338 10.9517 18.187C12.1572 17.0239 12.8232 15.4797 12.8305 13.8362L12.8132 6.53743C13.3883 6.97052 14.0171 7.32889 14.692 7.60705C15.7416 8.03936 16.8546 8.25845 18 8.25805V5.88682V5.00694C18.0008 5.00773 17.9911 5.00773 17.9903 5.00773Z" fill="#303030"/>
</svg>
