<svg width="22" height="16" viewBox="0 0 22 16" fill="none" xmlns="http://www.w3.org/2000/svg">
<path d="M10.6706 15.5147C8.46749 15.4492 6.28617 15.4056 4.08304 15.3402C3.5377 15.3183 2.97056 15.2529 2.42523 15.122C1.48726 14.9257 0.854678 14.3586 0.527479 13.4424C0.222094 12.5699 0.156654 11.6755 0.0912148 10.7594C-0.0396646 8.73075 -0.0396644 6.72393 0.156655 4.6953C0.222094 3.99728 0.352973 3.32107 0.527479 2.64486C0.832864 1.5542 1.63995 0.899802 2.75243 0.768922C3.84309 0.638043 4.93375 0.572603 6.04623 0.55079C9.07826 0.507164 12.1103 0.507163 15.1423 0.528976C16.1458 0.528976 17.171 0.616229 18.1744 0.681669C18.5016 0.703482 18.8288 0.768922 19.156 0.856175C19.9194 1.09612 20.4866 1.59782 20.792 2.36129C21.1192 3.19019 21.2064 4.06272 21.2719 4.91344C21.4464 7.22564 21.4246 9.55965 21.1846 11.8719C21.141 12.3299 21.0319 12.7662 20.901 13.2025C20.5302 14.4458 19.6577 15.122 18.3925 15.2093C16.6911 15.3183 14.9896 15.3838 13.2664 15.4274C12.4157 15.4492 11.565 15.4274 10.7143 15.4274C10.6706 15.4928 10.6706 15.5147 10.6706 15.5147ZM14.0735 7.85822C12.1757 6.87663 10.3652 5.93866 8.51112 4.95706C8.51112 6.96388 8.51112 8.88344 8.51112 10.8903C10.3871 9.88685 12.1976 8.92707 14.0735 7.85822Z" fill="#303030"/>
</svg>
